solid ascii
  facet normal -1.140871e-016 -5.921189e-017 -1.000000e+000
    outer loop
      vertex   -1.809875e+002 1.551250e+002 3.000000e+000
      vertex   -1.770950e+002 1.551250e+002 3.000000e+000
      vertex   -1.809875e+002 1.251250e+002 3.000000e+000
    endloop
  endfacet
  facet normal -5.704355e-016 -0.000000e+000 -1.000000e+000
    outer loop
      vertex   -1.809875e+002 1.251250e+002 3.000000e+000
      vertex   -1.770950e+002 1.551250e+002 3.000000e+000
      vertex   -1.770950e+002 1.251250e+002 3.000000e+000
    endloop
  endfacet
  facet normal -1.140871e-016 -0.000000e+000 -1.000000e+000
    outer loop
      vertex   -1.809875e+002 9.512496e+001 3.000000e+000
      vertex   -1.770950e+002 1.251250e+002 3.000000e+000
      vertex   -1.770950e+002 9.512496e+001 3.000000e+000
    endloop
  endfacet
  facet normal -5.704355e-016 5.921189e-017 -1.000000e+000
    outer loop
      vertex   -1.809875e+002 9.512496e+001 3.000000e+000
      vertex   -1.809875e+002 1.251250e+002 3.000000e+000
      vertex   -1.770950e+002 1.251250e+002 3.000000e+000
    endloop
  endfacet
  facet normal -0.000000e+000 1.000000e+000 0.000000e+000
    outer loop
      vertex   -1.809875e+002 1.551250e+002 6.700000e+001
      vertex   -1.770950e+002 1.551250e+002 6.700000e+001
      vertex   -1.809875e+002 1.551250e+002 3.500000e+001
    endloop
  endfacet
  facet normal -0.000000e+000 1.000000e+000 0.000000e+000
    outer loop
      vertex   -1.809875e+002 1.551250e+002 3.500000e+001
      vertex   -1.770950e+002 1.551250e+002 6.700000e+001
      vertex   -1.770950e+002 1.551250e+002 3.500000e+001
    endloop
  endfacet
  facet normal -0.000000e+000 1.000000e+000 0.000000e+000
    outer loop
      vertex   -1.809875e+002 1.551250e+002 3.000000e+000
      vertex   -1.770950e+002 1.551250e+002 3.500000e+001
      vertex   -1.770950e+002 1.551250e+002 3.000000e+000
    endloop
  endfacet
  facet normal 0.000000e+000 1.000000e+000 0.000000e+000
    outer loop
      vertex   -1.809875e+002 1.551250e+002 3.000000e+000
      vertex   -1.809875e+002 1.551250e+002 3.500000e+001
      vertex   -1.770950e+002 1.551250e+002 3.500000e+001
    endloop
  endfacet
  facet normal 0.000000e+000 0.000000e+000 1.000000e+000
    outer loop
      vertex   -1.770950e+002 9.712496e+001 6.700000e+001
      vertex   -1.789875e+002 9.712496e+001 6.700000e+001
      vertex   -1.770950e+002 9.512496e+001 6.700000e+001
    endloop
  endfacet
  facet normal 0.000000e+000 0.000000e+000 1.000000e+000
    outer loop
      vertex   -1.770950e+002 9.512496e+001 6.700000e+001
      vertex   -1.789875e+002 9.712496e+001 6.700000e+001
      vertex   -1.809875e+002 9.512496e+001 6.700000e+001
    endloop
  endfacet
  facet normal 0.000000e+000 -0.000000e+000 1.000000e+000
    outer loop
      vertex   -1.809875e+002 9.512496e+001 6.700000e+001
      vertex   -1.789875e+002 9.712496e+001 6.700000e+001
      vertex   -1.809875e+002 1.251250e+002 6.700000e+001
    endloop
  endfacet
  facet normal -0.000000e+000 0.000000e+000 1.000000e+000
    outer loop
      vertex   -1.809875e+002 1.251250e+002 6.700000e+001
      vertex   -1.789875e+002 9.712496e+001 6.700000e+001
      vertex   -1.789875e+002 1.531250e+002 6.700000e+001
    endloop
  endfacet
  facet normal -0.000000e+000 0.000000e+000 1.000000e+000
    outer loop
      vertex   -1.809875e+002 1.551250e+002 6.700000e+001
      vertex   -1.789875e+002 1.531250e+002 6.700000e+001
      vertex   -1.770950e+002 1.551250e+002 6.700000e+001
    endloop
  endfacet
  facet normal -0.000000e+000 0.000000e+000 1.000000e+000
    outer loop
      vertex   -1.809875e+002 1.551250e+002 6.700000e+001
      vertex   -1.809875e+002 1.251250e+002 6.700000e+001
      vertex   -1.789875e+002 1.531250e+002 6.700000e+001
    endloop
  endfacet
  facet normal 0.000000e+000 0.000000e+000 1.000000e+000
    outer loop
      vertex   -1.789875e+002 1.531250e+002 6.700000e+001
      vertex   -1.770950e+002 1.531250e+002 6.700000e+001
      vertex   -1.770950e+002 1.551250e+002 6.700000e+001
    endloop
  endfacet
  facet normal -1.000000e+000 5.259073e-032 8.881784e-016
    outer loop
      vertex   -1.809875e+002 1.551250e+002 3.000000e+000
      vertex   -1.809875e+002 1.251250e+002 3.000000e+000
      vertex   -1.809875e+002 1.551250e+002 3.500000e+001
    endloop
  endfacet
  facet normal -1.000000e+000 4.736952e-016 4.440892e-016
    outer loop
      vertex   -1.809875e+002 1.551250e+002 3.500000e+001
      vertex   -1.809875e+002 1.251250e+002 3.000000e+000
      vertex   -1.809875e+002 9.512496e+001 3.500000e+001
    endloop
  endfacet
  facet normal -1.000000e+000 9.473903e-016 0.000000e+000
    outer loop
      vertex   -1.809875e+002 1.251250e+002 6.700000e+001
      vertex   -1.809875e+002 9.512496e+001 3.500000e+001
      vertex   -1.809875e+002 9.512496e+001 6.700000e+001
    endloop
  endfacet
  facet normal -1.000000e+000 4.736952e-016 4.440892e-016
    outer loop
      vertex   -1.809875e+002 1.251250e+002 6.700000e+001
      vertex   -1.809875e+002 1.551250e+002 3.500000e+001
      vertex   -1.809875e+002 9.512496e+001 3.500000e+001
    endloop
  endfacet
  facet normal -1.000000e+000 -9.473903e-016 -8.881784e-016
    outer loop
      vertex   -1.809875e+002 1.251250e+002 6.700000e+001
      vertex   -1.809875e+002 1.551250e+002 6.700000e+001
      vertex   -1.809875e+002 1.551250e+002 3.500000e+001
    endloop
  endfacet
  facet normal -1.000000e+000 -0.000000e+000 0.000000e+000
    outer loop
      vertex   -1.809875e+002 1.251250e+002 3.000000e+000
      vertex   -1.809875e+002 9.512496e+001 3.000000e+000
      vertex   -1.809875e+002 9.512496e+001 3.500000e+001
    endloop
  endfacet
  facet normal -0.000000e+000 1.000000e+000 0.000000e+000
    outer loop
      vertex   -1.789875e+002 9.712496e+001 6.700000e+001
      vertex   -1.770950e+002 9.712496e+001 6.700000e+001
      vertex   -1.789875e+002 9.712496e+001 3.600000e+001
    endloop
  endfacet
  facet normal 7.508858e-015 1.000000e+000 -4.584147e-016
    outer loop
      vertex   -1.789875e+002 9.712496e+001 3.600000e+001
      vertex   -1.770950e+002 9.712496e+001 6.700000e+001
      vertex   -1.770950e+002 9.712496e+001 3.600000e+001
    endloop
  endfacet
  facet normal 0.000000e+000 1.000000e+000 4.584147e-016
    outer loop
      vertex   -1.789875e+002 9.712496e+001 5.000000e+000
      vertex   -1.770950e+002 9.712496e+001 3.600000e+001
      vertex   -1.770950e+002 9.712496e+001 5.000000e+000
    endloop
  endfacet
  facet normal 7.508858e-015 1.000000e+000 -6.884341e-030
    outer loop
      vertex   -1.789875e+002 9.712496e+001 5.000000e+000
      vertex   -1.789875e+002 9.712496e+001 3.600000e+001
      vertex   -1.770950e+002 9.712496e+001 3.600000e+001
    endloop
  endfacet
  facet normal 1.000000e+000 0.000000e+000 -9.168293e-016
    outer loop
      vertex   -1.789875e+002 1.531250e+002 5.000000e+000
      vertex   -1.789875e+002 1.531250e+002 3.600000e+001
      vertex   -1.789875e+002 9.712496e+001 5.000000e+000
    endloop
  endfacet
  facet normal 1.000000e+000 0.000000e+000 -9.168293e-016
    outer loop
      vertex   -1.789875e+002 9.712496e+001 5.000000e+000
      vertex   -1.789875e+002 1.531250e+002 3.600000e+001
      vertex   -1.789875e+002 9.712496e+001 3.600000e+001
    endloop
  endfacet
  facet normal 1.000000e+000 -0.000000e+000 9.168293e-016
    outer loop
      vertex   -1.789875e+002 9.712496e+001 3.600000e+001
      vertex   -1.789875e+002 1.531250e+002 3.600000e+001
      vertex   -1.789875e+002 1.531250e+002 6.700000e+001
    endloop
  endfacet
  facet normal 1.000000e+000 0.000000e+000 9.168293e-016
    outer loop
      vertex   -1.789875e+002 9.712496e+001 6.700000e+001
      vertex   -1.789875e+002 9.712496e+001 3.600000e+001
      vertex   -1.789875e+002 1.531250e+002 6.700000e+001
    endloop
  endfacet
  facet normal 0.000000e+000 -1.000000e+000 0.000000e+000
    outer loop
      vertex   -1.809875e+002 9.512496e+001 3.000000e+000
      vertex   -1.770950e+002 9.512496e+001 3.000000e+000
      vertex   -1.809875e+002 9.512496e+001 3.500000e+001
    endloop
  endfacet
  facet normal 3.650787e-015 -1.000000e+000 4.440892e-016
    outer loop
      vertex   -1.809875e+002 9.512496e+001 3.500000e+001
      vertex   -1.770950e+002 9.512496e+001 3.000000e+000
      vertex   -1.770950e+002 9.512496e+001 3.500000e+001
    endloop
  endfacet
  facet normal 0.000000e+000 -1.000000e+000 -4.440892e-016
    outer loop
      vertex   -1.809875e+002 9.512496e+001 6.700000e+001
      vertex   -1.770950e+002 9.512496e+001 3.500000e+001
      vertex   -1.770950e+002 9.512496e+001 6.700000e+001
    endloop
  endfacet
  facet normal 3.650787e-015 -1.000000e+000 0.000000e+000
    outer loop
      vertex   -1.809875e+002 9.512496e+001 6.700000e+001
      vertex   -1.809875e+002 9.512496e+001 3.500000e+001
      vertex   -1.770950e+002 9.512496e+001 3.500000e+001
    endloop
  endfacet
  facet normal 0.000000e+000 -1.000000e+000 0.000000e+000
    outer loop
      vertex   -1.789875e+002 1.531250e+002 5.000000e+000
      vertex   -1.770950e+002 1.531250e+002 5.000000e+000
      vertex   -1.789875e+002 1.531250e+002 3.600000e+001
    endloop
  endfacet
  facet normal 0.000000e+000 -1.000000e+000 0.000000e+000
    outer loop
      vertex   -1.789875e+002 1.531250e+002 3.600000e+001
      vertex   -1.770950e+002 1.531250e+002 5.000000e+000
      vertex   -1.770950e+002 1.531250e+002 3.600000e+001
    endloop
  endfacet
  facet normal 0.000000e+000 -1.000000e+000 0.000000e+000
    outer loop
      vertex   -1.789875e+002 1.531250e+002 6.700000e+001
      vertex   -1.770950e+002 1.531250e+002 3.600000e+001
      vertex   -1.770950e+002 1.531250e+002 6.700000e+001
    endloop
  endfacet
  facet normal 0.000000e+000 -1.000000e+000 0.000000e+000
    outer loop
      vertex   -1.789875e+002 1.531250e+002 6.700000e+001
      vertex   -1.789875e+002 1.531250e+002 3.600000e+001
      vertex   -1.770950e+002 1.531250e+002 3.600000e+001
    endloop
  endfacet
  facet normal 0.000000e+000 -0.000000e+000 1.000000e+000
    outer loop
      vertex   -1.770950e+002 9.712496e+001 5.000000e+000
      vertex   -1.770950e+002 1.531250e+002 5.000000e+000
      vertex   -1.789875e+002 9.712496e+001 5.000000e+000
    endloop
  endfacet
  facet normal 0.000000e+000 -0.000000e+000 1.000000e+000
    outer loop
      vertex   -1.789875e+002 9.712496e+001 5.000000e+000
      vertex   -1.770950e+002 1.531250e+002 5.000000e+000
      vertex   -1.789875e+002 1.531250e+002 5.000000e+000
    endloop
  endfacet
  facet normal 1.000000e+000 0.000000e+000 -9.168293e-016
    outer loop
      vertex   -1.770950e+002 9.712496e+001 6.700000e+001
      vertex   -1.770950e+002 9.512496e+001 6.700000e+001
      vertex   -1.770950e+002 9.712496e+001 3.600000e+001
    endloop
  endfacet
  facet normal 1.000000e+000 4.440892e-016 -8.881784e-016
    outer loop
      vertex   -1.770950e+002 9.712496e+001 3.600000e+001
      vertex   -1.770950e+002 9.512496e+001 6.700000e+001
      vertex   -1.770950e+002 9.512496e+001 3.500000e+001
    endloop
  endfacet
  facet normal 1.000000e+000 0.000000e+000 0.000000e+000
    outer loop
      vertex   -1.770950e+002 9.712496e+001 5.000000e+000
      vertex   -1.770950e+002 9.512496e+001 3.500000e+001
      vertex   -1.770950e+002 9.512496e+001 3.000000e+000
    endloop
  endfacet
  facet normal 1.000000e+000 0.000000e+000 0.000000e+000
    outer loop
      vertex   -1.770950e+002 1.251250e+002 3.000000e+000
      vertex   -1.770950e+002 9.712496e+001 5.000000e+000
      vertex   -1.770950e+002 9.512496e+001 3.000000e+000
    endloop
  endfacet
  facet normal 1.000000e+000 0.000000e+000 -0.000000e+000
    outer loop
      vertex   -1.770950e+002 1.251250e+002 3.000000e+000
      vertex   -1.770950e+002 1.531250e+002 5.000000e+000
      vertex   -1.770950e+002 9.712496e+001 5.000000e+000
    endloop
  endfacet
  facet normal 1.000000e+000 0.000000e+000 -0.000000e+000
    outer loop
      vertex   -1.770950e+002 1.251250e+002 3.000000e+000
      vertex   -1.770950e+002 1.551250e+002 3.000000e+000
      vertex   -1.770950e+002 1.531250e+002 5.000000e+000
    endloop
  endfacet
  facet normal 1.000000e+000 -0.000000e+000 0.000000e+000
    outer loop
      vertex   -1.770950e+002 1.531250e+002 5.000000e+000
      vertex   -1.770950e+002 1.551250e+002 3.000000e+000
      vertex   -1.770950e+002 1.551250e+002 3.500000e+001
    endloop
  endfacet
  facet normal 1.000000e+000 -4.440892e-016 -8.881784e-016
    outer loop
      vertex   -1.770950e+002 1.531250e+002 3.600000e+001
      vertex   -1.770950e+002 1.551250e+002 3.500000e+001
      vertex   -1.770950e+002 1.551250e+002 6.700000e+001
    endloop
  endfacet
  facet normal 1.000000e+000 0.000000e+000 -9.168293e-016
    outer loop
      vertex   -1.770950e+002 1.531250e+002 6.700000e+001
      vertex   -1.770950e+002 1.531250e+002 3.600000e+001
      vertex   -1.770950e+002 1.551250e+002 6.700000e+001
    endloop
  endfacet
  facet normal 1.000000e+000 0.000000e+000 0.000000e+000
    outer loop
      vertex   -1.770950e+002 9.712496e+001 3.600000e+001
      vertex   -1.770950e+002 9.512496e+001 3.500000e+001
      vertex   -1.770950e+002 9.712496e+001 5.000000e+000
    endloop
  endfacet
  facet normal 1.000000e+000 0.000000e+000 -0.000000e+000
    outer loop
      vertex   -1.770950e+002 1.531250e+002 5.000000e+000
      vertex   -1.770950e+002 1.551250e+002 3.500000e+001
      vertex   -1.770950e+002 1.531250e+002 3.600000e+001
    endloop
  endfacet
endsolid
solid ascii
  facet normal -1.000000e+000 3.346267e-011 4.736952e-015
    outer loop
      vertex   -1.231451e+002 1.551254e+002 0.000000e+000
      vertex   -1.231451e+002 1.551254e+002 3.000000e+000
      vertex   -1.231451e+002 1.551258e+002 0.000000e+000
    endloop
  endfacet
  facet normal -1.000000e+000 0.000000e+000 0.000000e+000
    outer loop
      vertex   -1.231451e+002 1.551258e+002 0.000000e+000
      vertex   -1.231451e+002 1.551254e+002 3.000000e+000
      vertex   -1.231451e+002 1.551258e+002 2.300000e+001
    endloop
  endfacet
  facet normal -1.000000e+000 4.736952e-016 -1.005839e-020
    outer loop
      vertex   -1.231451e+002 1.551258e+002 2.300000e+001
      vertex   -1.231451e+002 1.551254e+002 3.000000e+000
      vertex   -1.231451e+002 1.251258e+002 2.300000e+001
    endloop
  endfacet
  facet normal -1.000000e+000 -0.000000e+000 -7.105427e-016
    outer loop
      vertex   -1.231451e+002 1.251258e+002 2.300000e+001
      vertex   -1.231451e+002 1.551254e+002 3.000000e+000
      vertex   -1.231451e+002 1.251256e+002 3.000000e+000
    endloop
  endfacet
  facet normal -1.000000e+000 4.736985e-016 7.105427e-016
    outer loop
      vertex   -1.231451e+002 9.512584e+001 2.300000e+001
      vertex   -1.231451e+002 1.251256e+002 3.000000e+000
      vertex   -1.231451e+002 9.512584e+001 3.000000e+000
    endloop
  endfacet
  facet normal -1.000000e+000 -4.736952e-016 -7.105377e-016
    outer loop
      vertex   -1.231451e+002 9.512584e+001 2.300000e+001
      vertex   -1.231451e+002 1.251258e+002 2.300000e+001
      vertex   -1.231451e+002 1.251256e+002 3.000000e+000
    endloop
  endfacet
  facet normal 0.000000e+000 -0.000000e+000 -1.000000e+000
    outer loop
      vertex   -4.814505e+001 1.221268e+002 1.850000e+001
      vertex   -4.514505e+001 1.221268e+002 1.850000e+001
      vertex   -4.814505e+001 1.071268e+002 1.850000e+001
    endloop
  endfacet
  facet normal 0.000000e+000 0.000000e+000 -1.000000e+000
    outer loop
      vertex   -4.814505e+001 1.071268e+002 1.850000e+001
      vertex   -4.514505e+001 1.221268e+002 1.850000e+001
      vertex   -4.514505e+001 1.071268e+002 1.850000e+001
    endloop
  endfacet
  facet normal -0.000000e+000 1.000000e+000 0.000000e+000
    outer loop
      vertex   -4.814505e+001 1.071268e+002 3.500000e+000
      vertex   -4.814505e+001 1.071268e+002 1.850000e+001
      vertex   -4.514505e+001 1.071268e+002 3.500000e+000
    endloop
  endfacet
  facet normal 0.000000e+000 1.000000e+000 -0.000000e+000
    outer loop
      vertex   -4.514505e+001 1.071268e+002 3.500000e+000
      vertex   -4.814505e+001 1.071268e+002 1.850000e+001
      vertex   -4.514505e+001 1.071268e+002 1.850000e+001
    endloop
  endfacet
  facet normal 0.000000e+000 -0.000000e+000 1.000000e+000
    outer loop
      vertex   -4.814505e+001 1.071268e+002 3.500000e+000
      vertex   -4.514505e+001 1.071268e+002 3.500000e+000
      vertex   -4.814505e+001 1.221268e+002 3.500000e+000
    endloop
  endfacet
  facet normal -0.000000e+000 0.000000e+000 1.000000e+000
    outer loop
      vertex   -4.814505e+001 1.221268e+002 3.500000e+000
      vertex   -4.514505e+001 1.071268e+002 3.500000e+000
      vertex   -4.514505e+001 1.221268e+002 3.500000e+000
    endloop
  endfacet
  facet normal 0.000000e+000 -1.000000e+000 0.000000e+000
    outer loop
      vertex   -4.814505e+001 1.221268e+002 1.850000e+001
      vertex   -4.814505e+001 1.221268e+002 3.500000e+000
      vertex   -4.514505e+001 1.221268e+002 1.850000e+001
    endloop
  endfacet
  facet normal 0.000000e+000 -1.000000e+000 -0.000000e+000
    outer loop
      vertex   -4.514505e+001 1.221268e+002 1.850000e+001
      vertex   -4.814505e+001 1.221268e+002 3.500000e+000
      vertex   -4.514505e+001 1.221268e+002 3.500000e+000
    endloop
  endfacet
  facet normal -0.000000e+000 1.000000e+000 0.000000e+000
    outer loop
      vertex   -1.201451e+002 9.812584e+001 3.000000e+000
      vertex   -1.201451e+002 9.812584e+001 2.300000e+001
      vertex   -8.414505e+001 9.812584e+001 3.000000e+000
    endloop
  endfacet
  facet normal 0.000000e+000 1.000000e+000 -0.000000e+000
    outer loop
      vertex   -8.414505e+001 9.812584e+001 3.000000e+000
      vertex   -1.201451e+002 9.812584e+001 2.300000e+001
      vertex   -8.414505e+001 9.812584e+001 2.300000e+001
    endloop
  endfacet
  facet normal 0.000000e+000 1.000000e+000 -0.000000e+000
    outer loop
      vertex   -4.814505e+001 9.812584e+001 3.000000e+000
      vertex   -8.414505e+001 9.812584e+001 2.300000e+001
      vertex   -4.814505e+001 9.812584e+001 2.300000e+001
    endloop
  endfacet
  facet normal 0.000000e+000 1.000000e+000 -0.000000e+000
    outer loop
      vertex   -4.814505e+001 9.812584e+001 3.000000e+000
      vertex   -8.414505e+001 9.812584e+001 3.000000e+000
      vertex   -8.414505e+001 9.812584e+001 2.300000e+001
    endloop
  endfacet
  facet normal 1.000000e+000 0.000000e+000 -0.000000e+000
    outer loop
      vertex   -1.201451e+002 1.521258e+002 3.000000e+000
      vertex   -1.201451e+002 1.521258e+002 2.300000e+001
      vertex   -1.201451e+002 9.812584e+001 3.000000e+000
    endloop
  endfacet
  facet normal 1.000000e+000 0.000000e+000 -0.000000e+000
    outer loop
      vertex   -1.201451e+002 9.812584e+001 3.000000e+000
      vertex   -1.201451e+002 1.521258e+002 2.300000e+001
      vertex   -1.201451e+002 9.812584e+001 2.300000e+001
    endloop
  endfacet
  facet normal -0.000000e+000 -1.000000e+000 0.000000e+000
    outer loop
      vertex   -4.814505e+001 1.521258e+002 3.000000e+000
      vertex   -4.814505e+001 1.521258e+002 2.300000e+001
      vertex   -8.414505e+001 1.521258e+002 3.000000e+000
    endloop
  endfacet
  facet normal 0.000000e+000 -1.000000e+000 0.000000e+000
    outer loop
      vertex   -8.414505e+001 1.521258e+002 3.000000e+000
      vertex   -4.814505e+001 1.521258e+002 2.300000e+001
      vertex   -8.414505e+001 1.521258e+002 2.300000e+001
    endloop
  endfacet
  facet normal 0.000000e+000 -1.000000e+000 0.000000e+000
    outer loop
      vertex   -1.201451e+002 1.521258e+002 3.000000e+000
      vertex   -8.414505e+001 1.521258e+002 2.300000e+001
      vertex   -1.201451e+002 1.521258e+002 2.300000e+001
    endloop
  endfacet
  facet normal 0.000000e+000 -1.000000e+000 0.000000e+000
    outer loop
      vertex   -1.201451e+002 1.521258e+002 3.000000e+000
      vertex   -8.414505e+001 1.521258e+002 3.000000e+000
      vertex   -8.414505e+001 1.521258e+002 2.300000e+001
    endloop
  endfacet
  facet normal -1.000000e+000 0.000000e+000 -0.000000e+000
    outer loop
      vertex   -4.814505e+001 1.071268e+002 1.850000e+001
      vertex   -4.814505e+001 1.071268e+002 3.500000e+000
      vertex   -4.814505e+001 9.812584e+001 3.000000e+000
    endloop
  endfacet
  facet normal -1.000000e+000 0.000000e+000 -0.000000e+000
    outer loop
      vertex   -4.814505e+001 9.812584e+001 2.300000e+001
      vertex   -4.814505e+001 1.071268e+002 1.850000e+001
      vertex   -4.814505e+001 9.812584e+001 3.000000e+000
    endloop
  endfacet
  facet normal -1.000000e+000 -0.000000e+000 -0.000000e+000
    outer loop
      vertex   -4.814505e+001 9.812584e+001 2.300000e+001
      vertex   -4.814505e+001 1.221268e+002 1.850000e+001
      vertex   -4.814505e+001 1.071268e+002 1.850000e+001
    endloop
  endfacet
  facet normal -1.000000e+000 0.000000e+000 -0.000000e+000
    outer loop
      vertex   -4.814505e+001 9.812584e+001 2.300000e+001
      vertex   -4.814505e+001 1.521258e+002 2.300000e+001
      vertex   -4.814505e+001 1.221268e+002 1.850000e+001
    endloop
  endfacet
  facet normal -1.000000e+000 0.000000e+000 0.000000e+000
    outer loop
      vertex   -4.814505e+001 1.221268e+002 1.850000e+001
      vertex   -4.814505e+001 1.521258e+002 2.300000e+001
      vertex   -4.814505e+001 1.521258e+002 3.000000e+000
    endloop
  endfacet
  facet normal -1.000000e+000 0.000000e+000 -0.000000e+000
    outer loop
      vertex   -4.814505e+001 1.221268e+002 3.500000e+000
      vertex   -4.814505e+001 1.521258e+002 3.000000e+000
      vertex   -4.814505e+001 9.812584e+001 3.000000e+000
    endloop
  endfacet
  facet normal -1.000000e+000 0.000000e+000 -0.000000e+000
    outer loop
      vertex   -4.814505e+001 1.071268e+002 3.500000e+000
      vertex   -4.814505e+001 1.221268e+002 3.500000e+000
      vertex   -4.814505e+001 9.812584e+001 3.000000e+000
    endloop
  endfacet
  facet normal -1.000000e+000 0.000000e+000 0.000000e+000
    outer loop
      vertex   -4.814505e+001 1.221268e+002 3.500000e+000
      vertex   -4.814505e+001 1.221268e+002 1.850000e+001
      vertex   -4.814505e+001 1.521258e+002 3.000000e+000
    endloop
  endfacet
  facet normal -0.000000e+000 0.000000e+000 1.000000e+000
    outer loop
      vertex   -8.414505e+001 9.812584e+001 2.300000e+001
      vertex   -8.414505e+001 9.512584e+001 2.300000e+001
      vertex   -4.814505e+001 9.812584e+001 2.300000e+001
    endloop
  endfacet
  facet normal 0.000000e+000 0.000000e+000 1.000000e+000
    outer loop
      vertex   -8.414505e+001 9.812584e+001 2.300000e+001
      vertex   -1.201451e+002 9.812584e+001 2.300000e+001
      vertex   -8.414505e+001 9.512584e+001 2.300000e+001
    endloop
  endfacet
  facet normal 0.000000e+000 0.000000e+000 1.000000e+000
    outer loop
      vertex   -8.414505e+001 9.512584e+001 2.300000e+001
      vertex   -1.201451e+002 9.812584e+001 2.300000e+001
      vertex   -1.231451e+002 9.512584e+001 2.300000e+001
    endloop
  endfacet
  facet normal 0.000000e+000 -0.000000e+000 1.000000e+000
    outer loop
      vertex   -1.231451e+002 9.512584e+001 2.300000e+001
      vertex   -1.201451e+002 9.812584e+001 2.300000e+001
      vertex   -1.231451e+002 1.251258e+002 2.300000e+001
    endloop
  endfacet
  facet normal -0.000000e+000 0.000000e+000 1.000000e+000
    outer loop
      vertex   -1.231451e+002 1.251258e+002 2.300000e+001
      vertex   -1.201451e+002 9.812584e+001 2.300000e+001
      vertex   -1.201451e+002 1.521258e+002 2.300000e+001
    endloop
  endfacet
  facet normal -0.000000e+000 0.000000e+000 1.000000e+000
    outer loop
      vertex   -1.231451e+002 1.551258e+002 2.300000e+001
      vertex   -1.201451e+002 1.521258e+002 2.300000e+001
      vertex   -8.414505e+001 1.551258e+002 2.300000e+001
    endloop
  endfacet
  facet normal -0.000000e+000 0.000000e+000 1.000000e+000
    outer loop
      vertex   -1.231451e+002 1.551258e+002 2.300000e+001
      vertex   -1.231451e+002 1.251258e+002 2.300000e+001
      vertex   -1.201451e+002 1.521258e+002 2.300000e+001
    endloop
  endfacet
  facet normal 0.000000e+000 0.000000e+000 1.000000e+000
    outer loop
      vertex   -1.201451e+002 1.521258e+002 2.300000e+001
      vertex   -8.414505e+001 1.521258e+002 2.300000e+001
      vertex   -8.414505e+001 1.551258e+002 2.300000e+001
    endloop
  endfacet
  facet normal -0.000000e+000 0.000000e+000 1.000000e+000
    outer loop
      vertex   -8.414505e+001 1.551258e+002 2.300000e+001
      vertex   -8.414505e+001 1.521258e+002 2.300000e+001
      vertex   -4.814505e+001 1.521258e+002 2.300000e+001
    endloop
  endfacet
  facet normal 0.000000e+000 0.000000e+000 1.000000e+000
    outer loop
      vertex   -4.514505e+001 1.551258e+002 2.300000e+001
      vertex   -4.814505e+001 1.521258e+002 2.300000e+001
      vertex   -4.514505e+001 1.251258e+002 2.300000e+001
    endloop
  endfacet
  facet normal 0.000000e+000 0.000000e+000 1.000000e+000
    outer loop
      vertex   -4.514505e+001 1.551258e+002 2.300000e+001
      vertex   -8.414505e+001 1.551258e+002 2.300000e+001
      vertex   -4.814505e+001 1.521258e+002 2.300000e+001
    endloop
  endfacet
  facet normal -0.000000e+000 0.000000e+000 1.000000e+000
    outer loop
      vertex   -4.814505e+001 1.521258e+002 2.300000e+001
      vertex   -4.814505e+001 9.812584e+001 2.300000e+001
      vertex   -4.514505e+001 1.251258e+002 2.300000e+001
    endloop
  endfacet
  facet normal 0.000000e+000 0.000000e+000 1.000000e+000
    outer loop
      vertex   -4.514505e+001 1.251258e+002 2.300000e+001
      vertex   -4.814505e+001 9.812584e+001 2.300000e+001
      vertex   -4.514505e+001 9.512584e+001 2.300000e+001
    endloop
  endfacet
  facet normal 0.000000e+000 0.000000e+000 1.000000e+000
    outer loop
      vertex   -4.514505e+001 9.512584e+001 2.300000e+001
      vertex   -4.814505e+001 9.812584e+001 2.300000e+001
      vertex   -8.414505e+001 9.512584e+001 2.300000e+001
    endloop
  endfacet
  facet normal 0.000000e+000 -1.000000e+000 0.000000e+000
    outer loop
      vertex   -1.196171e+002 9.512584e+001 0.000000e+000
      vertex   -8.238109e+001 9.512584e+001 0.000000e+000
      vertex   -1.196171e+002 9.512584e+001 3.000000e+000
    endloop
  endfacet
  facet normal 0.000000e+000 -1.000000e+000 0.000000e+000
    outer loop
      vertex   -1.196171e+002 9.512584e+001 3.000000e+000
      vertex   -8.238109e+001 9.512584e+001 0.000000e+000
      vertex   -8.414505e+001 9.512584e+001 2.300000e+001
    endloop
  endfacet
  facet normal 0.000000e+000 -1.000000e+000 0.000000e+000
    outer loop
      vertex   -1.231451e+002 9.512584e+001 2.300000e+001
      vertex   -1.196171e+002 9.512584e+001 3.000000e+000
      vertex   -8.414505e+001 9.512584e+001 2.300000e+001
    endloop
  endfacet
  facet normal 0.000000e+000 -1.000000e+000 -0.000000e+000
    outer loop
      vertex   -1.231451e+002 9.512584e+001 2.300000e+001
      vertex   -1.231451e+002 9.512584e+001 3.000000e+000
      vertex   -1.196171e+002 9.512584e+001 3.000000e+000
    endloop
  endfacet
  facet normal -0.000000e+000 -1.000000e+000 0.000000e+000
    outer loop
      vertex   -4.514505e+001 9.512584e+001 0.000000e+000
      vertex   -4.514505e+001 9.512584e+001 2.300000e+001
      vertex   -8.238109e+001 9.512584e+001 0.000000e+000
    endloop
  endfacet
  facet normal 0.000000e+000 -1.000000e+000 0.000000e+000
    outer loop
      vertex   -8.238109e+001 9.512584e+001 0.000000e+000
      vertex   -4.514505e+001 9.512584e+001 2.300000e+001
      vertex   -8.414505e+001 9.512584e+001 2.300000e+001
    endloop
  endfacet
  facet normal 0.000000e+000 1.000000e+000 0.000000e+000
    outer loop
      vertex   -4.514505e+001 1.551258e+002 2.300000e+001
      vertex   -4.514505e+001 1.551258e+002 0.000000e+000
      vertex   -8.414505e+001 1.551258e+002 2.300000e+001
    endloop
  endfacet
  facet normal 0.000000e+000 1.000000e+000 0.000000e+000
    outer loop
      vertex   -8.414505e+001 1.551258e+002 2.300000e+001
      vertex   -4.514505e+001 1.551258e+002 0.000000e+000
      vertex   -8.414505e+001 1.551258e+002 0.000000e+000
    endloop
  endfacet
  facet normal 0.000000e+000 1.000000e+000 0.000000e+000
    outer loop
      vertex   -1.231451e+002 1.551258e+002 2.300000e+001
      vertex   -8.414505e+001 1.551258e+002 0.000000e+000
      vertex   -1.231451e+002 1.551258e+002 0.000000e+000
    endloop
  endfacet
  facet normal -0.000000e+000 1.000000e+000 0.000000e+000
    outer loop
      vertex   -1.231451e+002 1.551258e+002 2.300000e+001
      vertex   -8.414505e+001 1.551258e+002 2.300000e+001
      vertex   -8.414505e+001 1.551258e+002 0.000000e+000
    endloop
  endfacet
  facet normal 1.000000e+000 0.000000e+000 4.060244e-015
    outer loop
      vertex   -4.514505e+001 1.071268e+002 3.500000e+000
      vertex   -4.514505e+001 1.251258e+002 1.776357e-014
      vertex   -4.514505e+001 1.221268e+002 3.500000e+000
    endloop
  endfacet
  facet normal 1.000000e+000 -4.736952e-016 1.624227e-015
    outer loop
      vertex   -4.514505e+001 1.071268e+002 3.500000e+000
      vertex   -4.514505e+001 9.512584e+001 0.000000e+000
      vertex   -4.514505e+001 1.251258e+002 1.776357e-014
    endloop
  endfacet
  facet normal 1.000000e+000 0.000000e+000 -0.000000e+000
    outer loop
      vertex   -4.514505e+001 1.071268e+002 3.500000e+000
      vertex   -4.514505e+001 1.071268e+002 1.850000e+001
      vertex   -4.514505e+001 9.512584e+001 0.000000e+000
    endloop
  endfacet
  facet normal 1.000000e+000 0.000000e+000 -0.000000e+000
    outer loop
      vertex   -4.514505e+001 9.512584e+001 0.000000e+000
      vertex   -4.514505e+001 1.071268e+002 1.850000e+001
      vertex   -4.514505e+001 9.512584e+001 2.300000e+001
    endloop
  endfacet
  facet normal 1.000000e+000 -0.000000e+000 0.000000e+000
    outer loop
      vertex   -4.514505e+001 9.512584e+001 2.300000e+001
      vertex   -4.514505e+001 1.071268e+002 1.850000e+001
      vertex   -4.514505e+001 1.251258e+002 2.300000e+001
    endloop
  endfacet
  facet normal 1.000000e+000 -0.000000e+000 0.000000e+000
    outer loop
      vertex   -4.514505e+001 1.251258e+002 2.300000e+001
      vertex   -4.514505e+001 1.071268e+002 1.850000e+001
      vertex   -4.514505e+001 1.221268e+002 1.850000e+001
    endloop
  endfacet
  facet normal 1.000000e+000 0.000000e+000 0.000000e+000
    outer loop
      vertex   -4.514505e+001 1.551258e+002 2.300000e+001
      vertex   -4.514505e+001 1.221268e+002 1.850000e+001
      vertex   -4.514505e+001 1.551258e+002 0.000000e+000
    endloop
  endfacet
  facet normal 1.000000e+000 0.000000e+000 0.000000e+000
    outer loop
      vertex   -4.514505e+001 1.551258e+002 2.300000e+001
      vertex   -4.514505e+001 1.251258e+002 2.300000e+001
      vertex   -4.514505e+001 1.221268e+002 1.850000e+001
    endloop
  endfacet
  facet normal 1.000000e+000 0.000000e+000 0.000000e+000
    outer loop
      vertex   -4.514505e+001 1.221268e+002 1.850000e+001
      vertex   -4.514505e+001 1.221268e+002 3.500000e+000
      vertex   -4.514505e+001 1.551258e+002 0.000000e+000
    endloop
  endfacet
  facet normal 1.000000e+000 4.736952e-016 4.466139e-015
    outer loop
      vertex   -4.514505e+001 1.551258e+002 0.000000e+000
      vertex   -4.514505e+001 1.221268e+002 3.500000e+000
      vertex   -4.514505e+001 1.251258e+002 1.776357e-014
    endloop
  endfacet
  facet normal 0.000000e+000 -0.000000e+000 -1.000000e+000
    outer loop
      vertex   -1.231451e+002 1.551258e+002 0.000000e+000
      vertex   -8.414505e+001 1.551258e+002 0.000000e+000
      vertex   -1.231451e+002 1.551254e+002 0.000000e+000
    endloop
  endfacet
  facet normal 0.000000e+000 -0.000000e+000 -1.000000e+000
    outer loop
      vertex   -1.231451e+002 1.551254e+002 0.000000e+000
      vertex   -8.414505e+001 1.551258e+002 0.000000e+000
      vertex   -1.196171e+002 9.512584e+001 0.000000e+000
    endloop
  endfacet
  facet normal 0.000000e+000 -4.182834e-011 -1.000000e+000
    outer loop
      vertex   -1.508661e+002 9.512541e+001 1.776357e-014
      vertex   -1.196171e+002 9.512584e+001 0.000000e+000
      vertex   -1.196171e+002 9.512541e+001 1.776357e-014
    endloop
  endfacet
  facet normal -5.684519e-016 -3.342450e-017 -1.000000e+000
    outer loop
      vertex   -1.508661e+002 9.512541e+001 1.776357e-014
      vertex   -1.231451e+002 1.551254e+002 0.000000e+000
      vertex   -1.196171e+002 9.512584e+001 0.000000e+000
    endloop
  endfacet
  facet normal -6.024604e-016 -1.771196e-017 -1.000000e+000
    outer loop
      vertex   -1.508661e+002 9.512541e+001 1.776357e-014
      vertex   -1.526301e+002 1.551254e+002 1.776357e-014
      vertex   -1.231451e+002 1.551254e+002 0.000000e+000
    endloop
  endfacet
  facet normal 0.000000e+000 0.000000e+000 -1.000000e+000
    outer loop
      vertex   -1.508661e+002 9.512541e+001 1.776357e-014
      vertex   -1.821151e+002 1.251254e+002 1.776357e-014
      vertex   -1.526301e+002 1.551254e+002 1.776357e-014
    endloop
  endfacet
  facet normal 0.000000e+000 0.000000e+000 -1.000000e+000
    outer loop
      vertex   -1.508661e+002 9.512541e+001 1.776357e-014
      vertex   -1.821151e+002 9.512541e+001 1.776357e-014
      vertex   -1.821151e+002 1.251254e+002 1.776357e-014
    endloop
  endfacet
  facet normal 0.000000e+000 -5.921189e-016 -1.000000e+000
    outer loop
      vertex   -4.514505e+001 1.551258e+002 0.000000e+000
      vertex   -4.514505e+001 1.251258e+002 1.776357e-014
      vertex   -8.414505e+001 1.551258e+002 0.000000e+000
    endloop
  endfacet
  facet normal 4.660150e-016 1.370055e-017 -1.000000e+000
    outer loop
      vertex   -8.414505e+001 1.551258e+002 0.000000e+000
      vertex   -4.514505e+001 1.251258e+002 1.776357e-014
      vertex   -8.238109e+001 9.512584e+001 0.000000e+000
    endloop
  endfacet
  facet normal 0.000000e+000 0.000000e+000 -1.000000e+000
    outer loop
      vertex   -1.196171e+002 9.512584e+001 0.000000e+000
      vertex   -8.414505e+001 1.551258e+002 0.000000e+000
      vertex   -8.238109e+001 9.512584e+001 0.000000e+000
    endloop
  endfacet
  facet normal 0.000000e+000 5.921189e-016 -1.000000e+000
    outer loop
      vertex   -4.514505e+001 1.251258e+002 1.776357e-014
      vertex   -4.514505e+001 9.512584e+001 0.000000e+000
      vertex   -8.238109e+001 9.512584e+001 0.000000e+000
    endloop
  endfacet
  facet normal 0.000000e+000 0.000000e+000 -1.000000e+000
    outer loop
      vertex   -1.821151e+002 1.251254e+002 1.776357e-014
      vertex   -1.821151e+002 1.551254e+002 1.776357e-014
      vertex   -1.526301e+002 1.551254e+002 1.776357e-014
    endloop
  endfacet
  facet normal -1.602014e-017 1.480308e-017 1.000000e+000
    outer loop
      vertex   -1.231451e+002 1.251256e+002 3.000000e+000
      vertex   -1.508661e+002 9.512541e+001 3.000000e+000
      vertex   -1.231451e+002 9.512584e+001 3.000000e+000
    endloop
  endfacet
  facet normal 0.000000e+000 0.000000e+000 1.000000e+000
    outer loop
      vertex   -1.231451e+002 1.251256e+002 3.000000e+000
      vertex   -1.526301e+002 1.551254e+002 3.000000e+000
      vertex   -1.508661e+002 9.512541e+001 3.000000e+000
    endloop
  endfacet
  facet normal 0.000000e+000 -0.000000e+000 1.000000e+000
    outer loop
      vertex   -1.231451e+002 1.251256e+002 3.000000e+000
      vertex   -1.231451e+002 1.551254e+002 3.000000e+000
      vertex   -1.526301e+002 1.551254e+002 3.000000e+000
    endloop
  endfacet
  facet normal -0.000000e+000 0.000000e+000 1.000000e+000
    outer loop
      vertex   -1.821151e+002 1.551254e+002 3.000000e+000
      vertex   -1.821151e+002 1.251254e+002 3.000000e+000
      vertex   -1.526301e+002 1.551254e+002 3.000000e+000
    endloop
  endfacet
  facet normal 0.000000e+000 0.000000e+000 1.000000e+000
    outer loop
      vertex   -1.526301e+002 1.551254e+002 3.000000e+000
      vertex   -1.821151e+002 1.251254e+002 3.000000e+000
      vertex   -1.508661e+002 9.512541e+001 3.000000e+000
    endloop
  endfacet
  facet normal 0.000000e+000 0.000000e+000 1.000000e+000
    outer loop
      vertex   -1.508661e+002 9.512541e+001 3.000000e+000
      vertex   -1.821151e+002 1.251254e+002 3.000000e+000
      vertex   -1.821151e+002 9.512541e+001 3.000000e+000
    endloop
  endfacet
  facet normal 0.000000e+000 -1.045708e-012 1.000000e+000
    outer loop
      vertex   -1.508661e+002 9.512541e+001 3.000000e+000
      vertex   -1.196171e+002 9.512541e+001 3.000000e+000
      vertex   -1.231451e+002 9.512584e+001 3.000000e+000
    endloop
  endfacet
  facet normal 1.258783e-016 -0.000000e+000 1.000000e+000
    outer loop
      vertex   -1.231451e+002 9.512584e+001 3.000000e+000
      vertex   -1.196171e+002 9.512541e+001 3.000000e+000
      vertex   -1.196171e+002 9.512584e+001 3.000000e+000
    endloop
  endfacet
  facet normal -1.233581e-017 -3.289550e-016 1.000000e+000
    outer loop
      vertex   -4.814505e+001 1.521258e+002 3.000000e+000
      vertex   -8.414505e+001 1.521258e+002 3.000000e+000
      vertex   -4.814505e+001 9.812584e+001 3.000000e+000
    endloop
  endfacet
  facet normal 0.000000e+000 -3.207311e-016 1.000000e+000
    outer loop
      vertex   -4.814505e+001 9.812584e+001 3.000000e+000
      vertex   -8.414505e+001 1.521258e+002 3.000000e+000
      vertex   -8.414505e+001 9.812584e+001 3.000000e+000
    endloop
  endfacet
  facet normal -4.810966e-016 -3.207311e-016 1.000000e+000
    outer loop
      vertex   -8.414505e+001 9.812584e+001 3.000000e+000
      vertex   -8.414505e+001 1.521258e+002 3.000000e+000
      vertex   -1.201451e+002 1.521258e+002 3.000000e+000
    endloop
  endfacet
  facet normal 0.000000e+000 -0.000000e+000 1.000000e+000
    outer loop
      vertex   -1.201451e+002 9.812584e+001 3.000000e+000
      vertex   -8.414505e+001 9.812584e+001 3.000000e+000
      vertex   -1.201451e+002 1.521258e+002 3.000000e+000
    endloop
  endfacet
  facet normal 1.000000e+000 0.000000e+000 -0.000000e+000
    outer loop
      vertex   -1.196171e+002 9.512584e+001 0.000000e+000
      vertex   -1.196171e+002 9.512584e+001 3.000000e+000
      vertex   -1.196171e+002 9.512541e+001 1.776357e-014
    endloop
  endfacet
  facet normal 1.000000e+000 0.000000e+000 -0.000000e+000
    outer loop
      vertex   -1.196171e+002 9.512541e+001 1.776357e-014
      vertex   -1.196171e+002 9.512584e+001 3.000000e+000
      vertex   -1.196171e+002 9.512541e+001 3.000000e+000
    endloop
  endfacet
  facet normal 0.000000e+000 -1.000000e+000 0.000000e+000
    outer loop
      vertex   -1.821151e+002 9.512541e+001 3.000000e+000
      vertex   -1.821151e+002 9.512541e+001 1.776357e-014
      vertex   -1.508661e+002 9.512541e+001 3.000000e+000
    endloop
  endfacet
  facet normal 0.000000e+000 -1.000000e+000 -0.000000e+000
    outer loop
      vertex   -1.508661e+002 9.512541e+001 3.000000e+000
      vertex   -1.821151e+002 9.512541e+001 1.776357e-014
      vertex   -1.508661e+002 9.512541e+001 1.776357e-014
    endloop
  endfacet
  facet normal 0.000000e+000 -1.000000e+000 -0.000000e+000
    outer loop
      vertex   -1.196171e+002 9.512541e+001 3.000000e+000
      vertex   -1.508661e+002 9.512541e+001 1.776357e-014
      vertex   -1.196171e+002 9.512541e+001 1.776357e-014
    endloop
  endfacet
  facet normal -0.000000e+000 -1.000000e+000 -0.000000e+000
    outer loop
      vertex   -1.196171e+002 9.512541e+001 3.000000e+000
      vertex   -1.508661e+002 9.512541e+001 3.000000e+000
      vertex   -1.508661e+002 9.512541e+001 1.776357e-014
    endloop
  endfacet
  facet normal -1.000000e+000 -0.000000e+000 -0.000000e+000
    outer loop
      vertex   -1.821151e+002 1.551254e+002 3.000000e+000
      vertex   -1.821151e+002 1.551254e+002 1.776357e-014
      vertex   -1.821151e+002 1.251254e+002 3.000000e+000
    endloop
  endfacet
  facet normal -1.000000e+000 -0.000000e+000 -0.000000e+000
    outer loop
      vertex   -1.821151e+002 1.251254e+002 3.000000e+000
      vertex   -1.821151e+002 1.551254e+002 1.776357e-014
      vertex   -1.821151e+002 1.251254e+002 1.776357e-014
    endloop
  endfacet
  facet normal -1.000000e+000 -0.000000e+000 -0.000000e+000
    outer loop
      vertex   -1.821151e+002 9.512541e+001 3.000000e+000
      vertex   -1.821151e+002 1.251254e+002 1.776357e-014
      vertex   -1.821151e+002 9.512541e+001 1.776357e-014
    endloop
  endfacet
  facet normal -1.000000e+000 0.000000e+000 0.000000e+000
    outer loop
      vertex   -1.821151e+002 9.512541e+001 3.000000e+000
      vertex   -1.821151e+002 1.251254e+002 3.000000e+000
      vertex   -1.821151e+002 1.251254e+002 1.776357e-014
    endloop
  endfacet
  facet normal 0.000000e+000 1.000000e+000 0.000000e+000
    outer loop
      vertex   -1.231451e+002 1.551254e+002 3.000000e+000
      vertex   -1.231451e+002 1.551254e+002 0.000000e+000
      vertex   -1.526301e+002 1.551254e+002 3.000000e+000
    endloop
  endfacet
  facet normal 0.000000e+000 1.000000e+000 0.000000e+000
    outer loop
      vertex   -1.526301e+002 1.551254e+002 3.000000e+000
      vertex   -1.231451e+002 1.551254e+002 0.000000e+000
      vertex   -1.526301e+002 1.551254e+002 1.776357e-014
    endloop
  endfacet
  facet normal 0.000000e+000 1.000000e+000 0.000000e+000
    outer loop
      vertex   -1.821151e+002 1.551254e+002 3.000000e+000
      vertex   -1.526301e+002 1.551254e+002 1.776357e-014
      vertex   -1.821151e+002 1.551254e+002 1.776357e-014
    endloop
  endfacet
  facet normal -0.000000e+000 1.000000e+000 0.000000e+000
    outer loop
      vertex   -1.821151e+002 1.551254e+002 3.000000e+000
      vertex   -1.526301e+002 1.551254e+002 3.000000e+000
      vertex   -1.526301e+002 1.551254e+002 1.776357e-014
    endloop
  endfacet
endsolid
solid ascii
  facet normal -1.000000e+000 0.000000e+000 0.000000e+000
    outer loop
      vertex   -1.770950e+002 1.251250e+002 3.000000e+000
      vertex   -1.770950e+002 9.512496e+001 3.000000e+000
      vertex   -1.770950e+002 1.051250e+002 5.000000e+000
    endloop
  endfacet
  facet normal -1.000000e+000 -0.000000e+000 0.000000e+000
    outer loop
      vertex   -1.770950e+002 1.451250e+002 5.000000e+000
      vertex   -1.770950e+002 1.251250e+002 3.000000e+000
      vertex   -1.770950e+002 1.051250e+002 5.000000e+000
    endloop
  endfacet
  facet normal -1.000000e+000 -0.000000e+000 -0.000000e+000
    outer loop
      vertex   -1.770950e+002 1.451250e+002 5.000000e+000
      vertex   -1.770950e+002 1.551250e+002 3.000000e+000
      vertex   -1.770950e+002 1.251250e+002 3.000000e+000
    endloop
  endfacet
  facet normal -1.000000e+000 0.000000e+000 0.000000e+000
    outer loop
      vertex   -1.770950e+002 1.451250e+002 5.000000e+000
      vertex   -1.770950e+002 1.551250e+002 3.500000e+001
      vertex   -1.770950e+002 1.551250e+002 3.000000e+000
    endloop
  endfacet
  facet normal -1.000000e+000 -2.750488e-015 9.168293e-016
    outer loop
      vertex   -1.770950e+002 1.451250e+002 5.000000e+000
      vertex   -1.770950e+002 1.451250e+002 3.600000e+001
      vertex   -1.770950e+002 1.551250e+002 3.500000e+001
    endloop
  endfacet
  facet normal -1.000000e+000 -2.753353e-015 8.881784e-016
    outer loop
      vertex   -1.770950e+002 1.551250e+002 3.500000e+001
      vertex   -1.770950e+002 1.451250e+002 3.600000e+001
      vertex   -1.770950e+002 1.551250e+002 6.700000e+001
    endloop
  endfacet
  facet normal -1.000000e+000 2.842171e-015 -9.168293e-016
    outer loop
      vertex   -1.770950e+002 1.551250e+002 6.700000e+001
      vertex   -1.770950e+002 1.451250e+002 3.600000e+001
      vertex   -1.770950e+002 1.451250e+002 6.700000e+001
    endloop
  endfacet
  facet normal -1.000000e+000 2.753353e-015 8.881784e-016
    outer loop
      vertex   -1.770950e+002 9.512496e+001 6.700000e+001
      vertex   -1.770950e+002 1.051250e+002 3.600000e+001
      vertex   -1.770950e+002 9.512496e+001 3.500000e+001
    endloop
  endfacet
  facet normal -1.000000e+000 -2.842171e-015 -9.168293e-016
    outer loop
      vertex   -1.770950e+002 9.512496e+001 6.700000e+001
      vertex   -1.770950e+002 1.051250e+002 6.700000e+001
      vertex   -1.770950e+002 1.051250e+002 3.600000e+001
    endloop
  endfacet
  facet normal -1.000000e+000 2.750488e-015 9.168293e-016
    outer loop
      vertex   -1.770950e+002 1.051250e+002 3.600000e+001
      vertex   -1.770950e+002 1.051250e+002 5.000000e+000
      vertex   -1.770950e+002 9.512496e+001 3.500000e+001
    endloop
  endfacet
  facet normal -1.000000e+000 0.000000e+000 -0.000000e+000
    outer loop
      vertex   -1.770950e+002 9.512496e+001 3.500000e+001
      vertex   -1.770950e+002 1.051250e+002 5.000000e+000
      vertex   -1.770950e+002 9.512496e+001 3.000000e+000
    endloop
  endfacet
  facet normal 0.000000e+000 1.000000e+000 -0.000000e+000
    outer loop
      vertex   -1.699875e+002 1.051250e+002 5.000000e+000
      vertex   -1.770950e+002 1.051250e+002 5.000000e+000
      vertex   -1.699875e+002 1.051250e+002 3.600000e+001
    endloop
  endfacet
  facet normal 0.000000e+000 1.000000e+000 -0.000000e+000
    outer loop
      vertex   -1.699875e+002 1.051250e+002 3.600000e+001
      vertex   -1.770950e+002 1.051250e+002 5.000000e+000
      vertex   -1.770950e+002 1.051250e+002 3.600000e+001
    endloop
  endfacet
  facet normal 0.000000e+000 1.000000e+000 0.000000e+000
    outer loop
      vertex   -1.699875e+002 1.051250e+002 6.700000e+001
      vertex   -1.770950e+002 1.051250e+002 3.600000e+001
      vertex   -1.770950e+002 1.051250e+002 6.700000e+001
    endloop
  endfacet
  facet normal 0.000000e+000 1.000000e+000 0.000000e+000
    outer loop
      vertex   -1.699875e+002 1.051250e+002 6.700000e+001
      vertex   -1.699875e+002 1.051250e+002 3.600000e+001
      vertex   -1.770950e+002 1.051250e+002 3.600000e+001
    endloop
  endfacet
  facet normal -4.876107e-016 0.000000e+000 -1.000000e+000
    outer loop
      vertex   -1.679875e+002 9.512496e+001 3.000000e+000
      vertex   -1.770950e+002 9.512496e+001 3.000000e+000
      vertex   -1.679875e+002 1.251250e+002 3.000000e+000
    endloop
  endfacet
  facet normal -4.876107e-016 0.000000e+000 -1.000000e+000
    outer loop
      vertex   -1.679875e+002 1.251250e+002 3.000000e+000
      vertex   -1.770950e+002 9.512496e+001 3.000000e+000
      vertex   -1.770950e+002 1.251250e+002 3.000000e+000
    endloop
  endfacet
  facet normal -4.876107e-016 0.000000e+000 -1.000000e+000
    outer loop
      vertex   -1.679875e+002 1.551250e+002 3.000000e+000
      vertex   -1.770950e+002 1.251250e+002 3.000000e+000
      vertex   -1.770950e+002 1.551250e+002 3.000000e+000
    endloop
  endfacet
  facet normal -4.876107e-016 -0.000000e+000 -1.000000e+000
    outer loop
      vertex   -1.679875e+002 1.551250e+002 3.000000e+000
      vertex   -1.679875e+002 1.251250e+002 3.000000e+000
      vertex   -1.770950e+002 1.251250e+002 3.000000e+000
    endloop
  endfacet
  facet normal 0.000000e+000 -0.000000e+000 1.000000e+000
    outer loop
      vertex   -1.770950e+002 1.451250e+002 6.700000e+001
      vertex   -1.699875e+002 1.451250e+002 6.700000e+001
      vertex   -1.770950e+002 1.551250e+002 6.700000e+001
    endloop
  endfacet
  facet normal -0.000000e+000 0.000000e+000 1.000000e+000
    outer loop
      vertex   -1.770950e+002 1.551250e+002 6.700000e+001
      vertex   -1.699875e+002 1.451250e+002 6.700000e+001
      vertex   -1.679875e+002 1.551250e+002 6.700000e+001
    endloop
  endfacet
  facet normal 0.000000e+000 0.000000e+000 1.000000e+000
    outer loop
      vertex   -1.679875e+002 1.551250e+002 6.700000e+001
      vertex   -1.699875e+002 1.451250e+002 6.700000e+001
      vertex   -1.679875e+002 1.376250e+002 6.700000e+001
    endloop
  endfacet
  facet normal 0.000000e+000 0.000000e+000 1.000000e+000
    outer loop
      vertex   -1.679875e+002 1.376250e+002 6.700000e+001
      vertex   -1.699875e+002 1.451250e+002 6.700000e+001
      vertex   -1.699875e+002 1.376250e+002 6.700000e+001
    endloop
  endfacet
  facet normal -0.000000e+000 0.000000e+000 1.000000e+000
    outer loop
      vertex   -1.770950e+002 1.051250e+002 6.700000e+001
      vertex   -1.770950e+002 9.512496e+001 6.700000e+001
      vertex   -1.699875e+002 1.051250e+002 6.700000e+001
    endloop
  endfacet
  facet normal -0.000000e+000 0.000000e+000 1.000000e+000
    outer loop
      vertex   -1.699875e+002 1.051250e+002 6.700000e+001
      vertex   -1.770950e+002 9.512496e+001 6.700000e+001
      vertex   -1.679875e+002 9.512496e+001 6.700000e+001
    endloop
  endfacet
  facet normal 0.000000e+000 0.000000e+000 1.000000e+000
    outer loop
      vertex   -1.679875e+002 1.126250e+002 6.700000e+001
      vertex   -1.699875e+002 1.051250e+002 6.700000e+001
      vertex   -1.679875e+002 9.512496e+001 6.700000e+001
    endloop
  endfacet
  facet normal 0.000000e+000 0.000000e+000 1.000000e+000
    outer loop
      vertex   -1.679875e+002 1.126250e+002 6.700000e+001
      vertex   -1.699875e+002 1.126250e+002 6.700000e+001
      vertex   -1.699875e+002 1.051250e+002 6.700000e+001
    endloop
  endfacet
  facet normal 0.000000e+000 1.000000e+000 -0.000000e+000
    outer loop
      vertex   -1.679875e+002 1.551250e+002 3.000000e+000
      vertex   -1.770950e+002 1.551250e+002 3.000000e+000
      vertex   -1.679875e+002 1.551250e+002 3.500000e+001
    endloop
  endfacet
  facet normal 0.000000e+000 1.000000e+000 -0.000000e+000
    outer loop
      vertex   -1.679875e+002 1.551250e+002 3.500000e+001
      vertex   -1.770950e+002 1.551250e+002 3.000000e+000
      vertex   -1.770950e+002 1.551250e+002 3.500000e+001
    endloop
  endfacet
  facet normal 0.000000e+000 1.000000e+000 -0.000000e+000
    outer loop
      vertex   -1.679875e+002 1.551250e+002 6.700000e+001
      vertex   -1.770950e+002 1.551250e+002 3.500000e+001
      vertex   -1.770950e+002 1.551250e+002 6.700000e+001
    endloop
  endfacet
  facet normal 0.000000e+000 1.000000e+000 0.000000e+000
    outer loop
      vertex   -1.679875e+002 1.551250e+002 6.700000e+001
      vertex   -1.679875e+002 1.551250e+002 3.500000e+001
      vertex   -1.770950e+002 1.551250e+002 3.500000e+001
    endloop
  endfacet
  facet normal 0.000000e+000 -1.000000e+000 0.000000e+000
    outer loop
      vertex   -1.699875e+002 1.376250e+002 6.400000e+001
      vertex   -1.679875e+002 1.376250e+002 6.400000e+001
      vertex   -1.699875e+002 1.376250e+002 6.700000e+001
    endloop
  endfacet
  facet normal 0.000000e+000 -1.000000e+000 0.000000e+000
    outer loop
      vertex   -1.699875e+002 1.376250e+002 6.700000e+001
      vertex   -1.679875e+002 1.376250e+002 6.400000e+001
      vertex   -1.679875e+002 1.376250e+002 6.700000e+001
    endloop
  endfacet
  facet normal -0.000000e+000 2.842171e-016 1.000000e+000
    outer loop
      vertex   -1.699875e+002 1.126250e+002 6.400000e+001
      vertex   -1.679875e+002 1.126250e+002 6.400000e+001
      vertex   -1.699875e+002 1.376250e+002 6.400000e+001
    endloop
  endfacet
  facet normal -3.552714e-015 0.000000e+000 1.000000e+000
    outer loop
      vertex   -1.699875e+002 1.376250e+002 6.400000e+001
      vertex   -1.679875e+002 1.126250e+002 6.400000e+001
      vertex   -1.679875e+002 1.376250e+002 6.400000e+001
    endloop
  endfacet
  facet normal -0.000000e+000 1.000000e+000 0.000000e+000
    outer loop
      vertex   -1.699875e+002 1.126250e+002 6.700000e+001
      vertex   -1.679875e+002 1.126250e+002 6.700000e+001
      vertex   -1.699875e+002 1.126250e+002 6.400000e+001
    endloop
  endfacet
  facet normal -0.000000e+000 1.000000e+000 0.000000e+000
    outer loop
      vertex   -1.699875e+002 1.126250e+002 6.400000e+001
      vertex   -1.679875e+002 1.126250e+002 6.700000e+001
      vertex   -1.679875e+002 1.126250e+002 6.400000e+001
    endloop
  endfacet
  facet normal -1.000000e+000 -0.000000e+000 -0.000000e+000
    outer loop
      vertex   -1.699875e+002 1.126250e+002 6.700000e+001
      vertex   -1.699875e+002 1.126250e+002 6.400000e+001
      vertex   -1.699875e+002 1.051250e+002 6.700000e+001
    endloop
  endfacet
  facet normal -1.000000e+000 0.000000e+000 -0.000000e+000
    outer loop
      vertex   -1.699875e+002 1.051250e+002 6.700000e+001
      vertex   -1.699875e+002 1.126250e+002 6.400000e+001
      vertex   -1.699875e+002 1.051250e+002 3.600000e+001
    endloop
  endfacet
  facet normal -1.000000e+000 0.000000e+000 0.000000e+000
    outer loop
      vertex   -1.699875e+002 1.051250e+002 3.600000e+001
      vertex   -1.699875e+002 1.126250e+002 6.400000e+001
      vertex   -1.699875e+002 1.451250e+002 3.600000e+001
    endloop
  endfacet
  facet normal -1.000000e+000 0.000000e+000 0.000000e+000
    outer loop
      vertex   -1.699875e+002 1.051250e+002 5.000000e+000
      vertex   -1.699875e+002 1.451250e+002 3.600000e+001
      vertex   -1.699875e+002 1.451250e+002 5.000000e+000
    endloop
  endfacet
  facet normal -1.000000e+000 0.000000e+000 0.000000e+000
    outer loop
      vertex   -1.699875e+002 1.051250e+002 5.000000e+000
      vertex   -1.699875e+002 1.051250e+002 3.600000e+001
      vertex   -1.699875e+002 1.451250e+002 3.600000e+001
    endloop
  endfacet
  facet normal -1.000000e+000 0.000000e+000 0.000000e+000
    outer loop
      vertex   -1.699875e+002 1.126250e+002 6.400000e+001
      vertex   -1.699875e+002 1.376250e+002 6.400000e+001
      vertex   -1.699875e+002 1.451250e+002 3.600000e+001
    endloop
  endfacet
  facet normal -1.000000e+000 0.000000e+000 0.000000e+000
    outer loop
      vertex   -1.699875e+002 1.451250e+002 3.600000e+001
      vertex   -1.699875e+002 1.376250e+002 6.400000e+001
      vertex   -1.699875e+002 1.451250e+002 6.700000e+001
    endloop
  endfacet
  facet normal -1.000000e+000 -0.000000e+000 0.000000e+000
    outer loop
      vertex   -1.699875e+002 1.451250e+002 6.700000e+001
      vertex   -1.699875e+002 1.376250e+002 6.400000e+001
      vertex   -1.699875e+002 1.376250e+002 6.700000e+001
    endloop
  endfacet
  facet normal -0.000000e+000 -1.000000e+000 -0.000000e+000
    outer loop
      vertex   -1.699875e+002 1.451250e+002 6.700000e+001
      vertex   -1.770950e+002 1.451250e+002 6.700000e+001
      vertex   -1.699875e+002 1.451250e+002 3.600000e+001
    endloop
  endfacet
  facet normal -0.000000e+000 -1.000000e+000 -0.000000e+000
    outer loop
      vertex   -1.699875e+002 1.451250e+002 3.600000e+001
      vertex   -1.770950e+002 1.451250e+002 6.700000e+001
      vertex   -1.770950e+002 1.451250e+002 3.600000e+001
    endloop
  endfacet
  facet normal -0.000000e+000 -1.000000e+000 0.000000e+000
    outer loop
      vertex   -1.699875e+002 1.451250e+002 5.000000e+000
      vertex   -1.770950e+002 1.451250e+002 3.600000e+001
      vertex   -1.770950e+002 1.451250e+002 5.000000e+000
    endloop
  endfacet
  facet normal 0.000000e+000 -1.000000e+000 0.000000e+000
    outer loop
      vertex   -1.699875e+002 1.451250e+002 5.000000e+000
      vertex   -1.699875e+002 1.451250e+002 3.600000e+001
      vertex   -1.770950e+002 1.451250e+002 3.600000e+001
    endloop
  endfacet
  facet normal 6.248217e-016 0.000000e+000 1.000000e+000
    outer loop
      vertex   -1.770950e+002 1.051250e+002 5.000000e+000
      vertex   -1.699875e+002 1.051250e+002 5.000000e+000
      vertex   -1.770950e+002 1.451250e+002 5.000000e+000
    endloop
  endfacet
  facet normal 6.248217e-016 -0.000000e+000 1.000000e+000
    outer loop
      vertex   -1.770950e+002 1.451250e+002 5.000000e+000
      vertex   -1.699875e+002 1.051250e+002 5.000000e+000
      vertex   -1.699875e+002 1.451250e+002 5.000000e+000
    endloop
  endfacet
  facet normal 1.000000e+000 0.000000e+000 0.000000e+000
    outer loop
      vertex   -1.679875e+002 1.126250e+002 6.700000e+001
      vertex   -1.679875e+002 9.512496e+001 6.700000e+001
      vertex   -1.679875e+002 1.126250e+002 6.400000e+001
    endloop
  endfacet
  facet normal 1.000000e+000 0.000000e+000 0.000000e+000
    outer loop
      vertex   -1.679875e+002 1.126250e+002 6.400000e+001
      vertex   -1.679875e+002 9.512496e+001 6.700000e+001
      vertex   -1.679875e+002 9.512496e+001 3.500000e+001
    endloop
  endfacet
  facet normal 1.000000e+000 0.000000e+000 0.000000e+000
    outer loop
      vertex   -1.679875e+002 1.376250e+002 6.400000e+001
      vertex   -1.679875e+002 9.512496e+001 3.500000e+001
      vertex   -1.679875e+002 1.551250e+002 3.500000e+001
    endloop
  endfacet
  facet normal 1.000000e+000 0.000000e+000 0.000000e+000
    outer loop
      vertex   -1.679875e+002 1.551250e+002 6.700000e+001
      vertex   -1.679875e+002 1.376250e+002 6.400000e+001
      vertex   -1.679875e+002 1.551250e+002 3.500000e+001
    endloop
  endfacet
  facet normal 1.000000e+000 0.000000e+000 0.000000e+000
    outer loop
      vertex   -1.679875e+002 1.551250e+002 6.700000e+001
      vertex   -1.679875e+002 1.376250e+002 6.700000e+001
      vertex   -1.679875e+002 1.376250e+002 6.400000e+001
    endloop
  endfacet
  facet normal 1.000000e+000 0.000000e+000 -8.881784e-016
    outer loop
      vertex   -1.679875e+002 9.512496e+001 3.000000e+000
      vertex   -1.679875e+002 1.251250e+002 3.000000e+000
      vertex   -1.679875e+002 9.512496e+001 3.500000e+001
    endloop
  endfacet
  facet normal 1.000000e+000 -1.051815e-031 -8.881784e-016
    outer loop
      vertex   -1.679875e+002 9.512496e+001 3.500000e+001
      vertex   -1.679875e+002 1.251250e+002 3.000000e+000
      vertex   -1.679875e+002 1.551250e+002 3.500000e+001
    endloop
  endfacet
  facet normal 1.000000e+000 0.000000e+000 -8.881784e-016
    outer loop
      vertex   -1.679875e+002 1.551250e+002 3.500000e+001
      vertex   -1.679875e+002 1.251250e+002 3.000000e+000
      vertex   -1.679875e+002 1.551250e+002 3.000000e+000
    endloop
  endfacet
  facet normal 1.000000e+000 0.000000e+000 0.000000e+000
    outer loop
      vertex   -1.679875e+002 1.376250e+002 6.400000e+001
      vertex   -1.679875e+002 1.126250e+002 6.400000e+001
      vertex   -1.679875e+002 9.512496e+001 3.500000e+001
    endloop
  endfacet
  facet normal -0.000000e+000 -1.000000e+000 -0.000000e+000
    outer loop
      vertex   -1.679875e+002 9.512496e+001 6.700000e+001
      vertex   -1.770950e+002 9.512496e+001 6.700000e+001
      vertex   -1.679875e+002 9.512496e+001 3.500000e+001
    endloop
  endfacet
  facet normal -1.560354e-015 -1.000000e+000 -4.440892e-016
    outer loop
      vertex   -1.679875e+002 9.512496e+001 3.500000e+001
      vertex   -1.770950e+002 9.512496e+001 6.700000e+001
      vertex   -1.770950e+002 9.512496e+001 3.500000e+001
    endloop
  endfacet
  facet normal 1.732341e-031 -1.000000e+000 4.440892e-016
    outer loop
      vertex   -1.679875e+002 9.512496e+001 3.000000e+000
      vertex   -1.770950e+002 9.512496e+001 3.500000e+001
      vertex   -1.770950e+002 9.512496e+001 3.000000e+000
    endloop
  endfacet
  facet normal -1.560354e-015 -1.000000e+000 1.385873e-030
    outer loop
      vertex   -1.679875e+002 9.512496e+001 3.000000e+000
      vertex   -1.679875e+002 9.512496e+001 3.500000e+001
      vertex   -1.770950e+002 9.512496e+001 3.500000e+001
    endloop
  endfacet
endsolid
